{"title":"7am Arivu ( 2011) - Tamil movie - Five Star DVDRip.Xvid - ESubs ","uid":6827287,"size":742226966,"categoryP":"video","categoryS":"movies","magnet":"?xt=urn:btih:11a20b9e26a323a480080aa3235ba1cd3092b9f5&amp;dn=7am+Arivu+%28+2011%29+-+Tamil+movie+-+Five+Star+DVDRip.Xvid+-+ESubs+&amp;tr=udp%3A%2F%2Ftracker.openbittorrent.com%3A80&amp;tr=udp%3A%2F%2Fopen.demonii.com%3A1337&amp;tr=udp%3A%2F%2Ftracker.coppersurfer.tk%3A6969&amp;tr=udp%3A%2F%2Fexodus.desync.com%3A6969","seeders":4,"leechers":0,"uploader":"rjaa","files":1,"time":1321624142,"description":"\n7am Arivu ( 2011) - Tamil movie - Five Star DVDRip - ESubs -\nFormat                                   : AVI\nFormat/Info                              : Audio Video Interleave\nFile size                                : 708 MiB\nDuration                                 : 2h 38mn\nOverall bit rate                         : 624 Kbps\n\nVideo\nID                                       : 0\nFormat                                   : MPEG-4 Visual\nFormat profile                           : Advanced Simple@L5\nFormat settings, BVOP                    : 2\nFormat settings, QPel                    : Yes\nFormat settings, GMC                     : No warppoints\nFormat settings, Matrix                  : Default (H.263)\nCodec ID                                 : XVID\nCodec ID/Hint                            : XviD\nDuration                                 : 2h 38mn\nBit rate                                 : 553 Kbps\nWidth                                    : 608 pixels\nHeight                                   : 288 pixels\nDisplay aspect ratio                     : 2.2:1\nFrame rate                               : 25.000 fps\nColor space                              : YUV\nChroma subsampling                       : 4:2:0\nBit depth                                : 8 bits\nScan type                                : Progressive\nCompression mode                         : Lossy\nBits/(Pixel*Frame)                       : 0.126\nStream size                              : 628 MiB (89%)\n\nAudio\nID                                       : 1\nFormat                                   : MPEG Audio\nFormat version                           : Version 2\nFormat profile                           : Layer 3\nMode                                     : Joint stereo\nMode extension                           : MS Stereo\nCodec ID                                 : 55\nCodec ID/Hint                            : MP3\nDuration                                 : 2h 38mn\nBit rate mode                            : Constant\nBit rate                                 : 64.0 Kbps\nChannel(s)                               : 2 channels\nSampling rate                            : 24.0 KHz\nCompression mode                         : Lossy\nStream size                              : 72.7 MiB (10%)\n\n7am Arivu ( 2011) - Tamil movie - Five Star DVDRip - ESubs - MJY\n &lt;a href=&quot;\nhttp://img26.imageshack.us/img26/2690/shot0012fb.png&quot; rel=&quot;nofollow&quot; target=&quot;_NEW&quot;&gt;\nhttp://img26.imageshack.us/img26/2690/shot0012fb.png&lt;/a&gt;\n &lt;a href=&quot;\nhttp://img521.imageshack.us/img521/6976/shot0013l.png&quot; rel=&quot;nofollow&quot; target=&quot;_NEW&quot;&gt;\nhttp://img521.imageshack.us/img521/6976/shot0013l.png&lt;/a&gt;\n &lt;a href=&quot;\nhttp://img10.imageshack.us/img10/4945/shot0016u.png&quot; rel=&quot;nofollow&quot; target=&quot;_NEW&quot;&gt;\nhttp://img10.imageshack.us/img10/4945/shot0016u.png&lt;/a&gt;\n &lt;a href=&quot;\nhttp://img705.imageshack.us/img705/294/shot0018p.png&quot; rel=&quot;nofollow&quot; target=&quot;_NEW&quot;&gt;\nhttp://img705.imageshack.us/img705/294/shot0018p.png&lt;/a&gt;\n &lt;a href=&quot;\nhttp://img715.imageshack.us/img715/1041/shot0019y.png&quot; rel=&quot;nofollow&quot; target=&quot;_NEW&quot;&gt;\nhttp://img715.imageshack.us/img715/1041/shot0019y.png&lt;/a&gt;\n\n","torrent":{"xt":"urn:btih:11a20b9e26a323a480080aa3235ba1cd3092b9f5","amp;dn":"7am+Arivu+%28+2011%29+-+Tamil+movie+-+Five+Star+DVDRip.Xvid+-+ESubs+","amp;tr":["udp%3A%2F%2Ftracker.openbittorrent.com%3A80","udp%3A%2F%2Fopen.demonii.com%3A1337","udp%3A%2F%2Ftracker.coppersurfer.tk%3A6969","udp%3A%2F%2Fexodus.desync.com%3A6969"],"infoHash":"11a20b9e26a323a480080aa3235ba1cd3092b9f5","infoHashBuffer":{"type":"Buffer","data":[17,162,11,158,38,163,35,164,128,8,10,163,35,91,161,205,48,146,185,245]},"announce":[],"urlList":[]}}